<svg width="611" height="647" viewBox="0 0 611 647" fill="none" xmlns="http://www.w3.org/2000/svg">
<g clip-path="url(#clip0_2_671)">
<path d="M564.322 600.072C392.258 600.072 248.681 600.072 76.617 600.072C49.9991 569.556 41.7731 527.832 54.7564 500.862C72.2722 464.478 131.559 448.377 178.868 489.751C185.507 444.686 221.188 412.295 260.669 414.351C301.864 416.495 335.569 455.537 336.123 503.243C352.265 453.782 397.031 424.704 440.489 433.4C478.848 441.073 509.545 476.846 515.944 522.292C538.053 499.373 571.994 501.175 590.692 523.88C607.209 543.937 580.172 576.45 564.322 600.072Z" stroke="#08082A" stroke-width="3" stroke-miterlimit="10" stroke-linecap="round" stroke-linejoin="round"/>
<path d="M395.491 543.83C365.87 540.156 330.922 537.616 307.539 559.48C302.196 564.551 296.988 571.191 289.625 571.447C283.32 571.666 278.073 567.035 272.796 563.579C233.638 540.762 144.844 561.795 100.342 570.99C87.8582 573.86 71.9481 582.009 73.7396 596.871C85.7121 631.233 149.957 599.137 176.642 617.119C189.167 623.09 198.826 633.923 211.239 640.125C248.547 658.029 288.053 633.434 323.83 622.422C401.396 599.191 489.017 632.066 564.325 602.327C572.631 599.046 581.157 594.568 585.389 586.711C600.527 558.612 549.703 561.252 535.365 559.632C488.738 554.363 442.115 549.097 395.491 543.83Z" fill="white" stroke="#08082A" stroke-width="3" stroke-miterlimit="10" stroke-linecap="round" stroke-linejoin="round"/>
<path d="M271.695 538.949C271.642 540.643 273.802 545.438 273.246 547.182C271.576 552.411 267.776 554.336 263.576 555.491C262.247 555.857 261.251 553.985 260.423 554.431C256.608 556.494 242.648 566.893 239.243 568.644C232.261 572.232 226.477 565.788 231.057 558.746C238.368 547.506 245.975 541.559 252.978 530.041C254.118 528.295 255.364 526.436 257.304 525.67C261.497 524.634 267.643 525.966 271.025 528.681C272.624 531.618 271.707 535.669 271.695 538.949Z" fill="#08082A" stroke="#08082A" stroke-width="3" stroke-miterlimit="10" stroke-linecap="round" stroke-linejoin="round"/>
<path d="M304.665 317.251C304.665 317.251 285.186 343.892 275.611 417.504C269.495 452.581 252.208 524.067 254.07 528.053C255.931 532.039 270.026 533.102 273.216 530.179C276.407 527.256 300.608 482.61 301.14 447.533L301.805 433.98C301.805 433.98 362.305 330.214 362.305 319.445C322.815 317.849 304.665 317.251 304.665 317.251Z" fill="url(#paint0_linear_2_671)" stroke="#08082A" stroke-width="3" stroke-miterlimit="10" stroke-linecap="round" stroke-linejoin="round"/>
<path d="M428.196 479.26C431.854 483.051 436.954 483.922 436.057 487.61C435.836 488.518 431.769 497.675 429.526 498.372C429.04 498.523 427.081 496.987 426.783 497.457C420.945 506.662 410.566 523.548 405.291 521.044C398.975 518.046 407.411 498.59 411.388 488.507C412.157 486.557 412.97 484.339 412.076 482.442C409.561 479.273 408.742 476.788 413.386 475.236C415.538 474.492 419.017 472.932 421.254 473.816C423.737 474.797 426.449 477.287 428.196 479.26Z" fill="#08082A" stroke="#08082A" stroke-width="3" stroke-miterlimit="10" stroke-linecap="round" stroke-linejoin="round"/>
<path d="M391.561 306.421C391.561 306.421 400.603 318.379 396.613 343.093C392.623 367.807 359.115 387.739 359.115 387.739C359.115 387.739 414.696 437.965 422.941 473.574C423.013 479.786 414.164 484.569 407.982 480.185C401.8 475.8 323.349 408.207 323.347 384.55C323.346 357.311 339.835 329.01 346.485 322.765" fill="url(#paint1_linear_2_671)"/>
<path d="M391.561 306.421C391.561 306.421 400.603 318.379 396.613 343.093C392.623 367.807 359.115 387.739 359.115 387.739C359.115 387.739 414.696 437.965 422.941 473.574C423.013 479.786 414.164 484.569 407.982 480.185C401.8 475.8 323.349 408.207 323.347 384.55C323.346 357.311 339.835 329.01 346.485 322.765" stroke="#08082A" stroke-width="3" stroke-miterlimit="10" stroke-linecap="round" stroke-linejoin="round"/>
<path d="M512.635 288.842C503.967 262.382 473.683 245.036 446.453 250.939C447.092 237.819 436.095 226.359 423.616 222.232C411.137 218.104 397.557 219.704 384.581 221.797C371.604 223.891 358.355 226.441 345.422 224.087C329.524 221.193 315 211.022 298.851 211.638C287.992 212.054 278.022 217.331 267.912 221.319C257.803 225.306 246.137 228.011 236.3 223.392C225.487 218.314 220.199 206.053 211.189 198.214C202.442 190.603 189.949 187.518 178.662 190.177C167.373 192.838 157.577 201.174 153.153 211.889L213.714 320.241L456.582 317.251L487.089 353.724L512.635 336.384V288.842Z" stroke="#08082A" stroke-width="3" stroke-miterlimit="10" stroke-linecap="round" stroke-linejoin="round"/>
<path d="M260.452 79.7421C260.452 79.7421 242.635 48.916 241.305 51.7062C239.976 54.4963 243.964 62.8667 245.825 65.9243C240.64 69.113 234.124 73.1875 240.374 78.7235C246.623 84.2612 250.334 81.7811 252.209 82.1337C254.735 86.3853 254.735 86.3853 254.735 86.3853L260.452 79.7421Z" fill="white" stroke="#08082A" stroke-width="3" stroke-miterlimit="10" stroke-linecap="round" stroke-linejoin="round"/>
<path d="M355.536 179.53C355.536 179.53 347.548 170.761 339.039 163.717C330.529 156.675 268.566 81.27 261.983 79.0778C255.402 76.8855 251.611 85.4552 253.206 88.2453C254.802 91.0355 282.526 132.094 291.502 147.838C300.478 163.582 322.616 188.098 323.813 201.253C325.009 214.406 327.602 222.778 327.602 222.778L355.536 179.53Z" fill="white" stroke="#08082A" stroke-width="3" stroke-miterlimit="10" stroke-linecap="round" stroke-linejoin="round"/>
<path d="M332.892 200.709C327.557 210.112 322.597 222.433 320.287 237.327C317.541 255.033 305.661 312.533 305.661 312.533H392.091C392.091 312.533 408.778 298.914 404.789 271.011C400.801 243.108 403.792 207.034 381.719 190.026C365.824 177.778 358.23 177.271 352.426 176.249" fill="white"/>
<path d="M332.892 200.709C327.557 210.112 322.597 222.433 320.287 237.327C317.541 255.033 305.661 312.533 305.661 312.533H392.091C392.091 312.533 408.778 298.914 404.789 271.011C400.801 243.108 403.792 207.034 381.719 190.026C365.824 177.778 358.23 177.271 352.426 176.249" stroke="#08082A" stroke-width="3" stroke-miterlimit="10" stroke-linecap="round" stroke-linejoin="round"/>
<path d="M360.712 306.421C352.933 303.166 354.331 263.835 354.141 238.325C353.952 212.814 378.53 193.281 378.53 193.281C378.53 193.281 361.311 197.567 355.127 187.302C346.948 202.15 339.382 259.12 332.894 274.001C326.405 288.883 312.576 308.675 312.576 308.675L360.712 306.421Z" fill="url(#paint2_linear_2_671)"/>
<path d="M360.712 306.421C352.933 303.166 354.331 263.835 354.141 238.325C353.952 212.814 378.53 193.281 378.53 193.281C378.53 193.281 361.311 197.567 355.127 187.302C346.948 202.15 339.382 259.12 332.894 274.001C326.405 288.883 312.576 308.675 312.576 308.675L360.712 306.421Z" fill="url(#paint3_linear_2_671)"/>
<path d="M360.712 306.421C352.933 303.166 354.331 263.835 354.141 238.325C353.952 212.814 378.53 193.281 378.53 193.281C378.53 193.281 361.311 197.567 355.127 187.302C346.948 202.15 339.382 259.12 332.894 274.001C326.405 288.883 312.576 308.675 312.576 308.675L360.712 306.421Z" stroke="#08082A" stroke-width="3" stroke-miterlimit="10" stroke-linecap="round" stroke-linejoin="round"/>
<path d="M359.649 159.465C359.649 159.465 358.452 170.892 356.059 181.655C358.984 194.809 378.531 189.627 378.531 189.627C378.531 189.627 373.476 167.986 376.135 160.811C373.341 155.497 359.649 159.465 359.649 159.465Z" fill="white" stroke="#08082A" stroke-width="3" stroke-miterlimit="10" stroke-linecap="round" stroke-linejoin="round"/>
<path d="M364.701 162.92C364.701 162.92 353.93 163.318 349.542 153.752C345.155 144.186 356.99 128.639 356.99 128.639C356.99 128.639 359.383 124.122 364.703 123.059C370.021 121.996 384.78 141.662 384.78 141.662L379.329 162.124" fill="white"/>
<path d="M364.701 162.92C364.701 162.92 353.93 163.318 349.542 153.752C345.155 144.186 356.99 128.639 356.99 128.639C356.99 128.639 359.383 124.122 364.703 123.059C370.021 121.996 384.78 141.662 384.78 141.662L379.329 162.124" stroke="#08082A" stroke-width="3" stroke-miterlimit="10" stroke-linecap="round" stroke-linejoin="round"/>
<path d="M364.9 162.949C364.9 162.949 361.036 164.33 359.614 163.956C359.964 162.46 359.964 162.46 359.964 162.46L364.9 162.949Z" fill="#08082A" stroke="#08082A" stroke-width="3" stroke-miterlimit="10" stroke-linecap="round" stroke-linejoin="round"/>
<path d="M373.178 149.036C373.798 147.893 381.489 143.953 378.53 138.572C375.571 133.191 370.585 138.073 369.886 139.568C369.187 141.064 371.216 131.164 364.036 126.779C356.855 122.395 355.526 108.442 364.701 104.191C370.684 106.715 384.513 116.946 385.578 130.234C390.63 131.297 394.488 134.618 395.019 142.192C395.551 149.765 392.892 163.319 378 165.577C373.212 160.396 370.617 153.752 373.178 149.036Z" fill="#08082A" stroke="#08082A" stroke-width="3" stroke-miterlimit="10" stroke-linecap="round" stroke-linejoin="round"/>
<path d="M521.616 390.147C524.26 377.318 540.208 381.094 549.722 379.06C568.721 374.659 562.598 353.225 583.905 351.026C594.161 348.749 593.024 361.009 588.562 366.409C585.603 369.835 579.831 375.113 583.976 379.622C586.929 382.169 591.03 380.002 594.422 379.849C599.805 379.644 604.569 384.669 604.804 390.045C605.242 397.421 596.991 405.778 589.468 403.137C586.457 401.736 584.958 397.871 581.745 397.026C578.401 396.147 575.283 399.024 573.349 401.889C560.999 423.006 553.711 391.755 537.119 399.751C535.759 402.928 531.363 401.608 529.353 399.659C526.351 396.978 520.786 395.026 521.616 390.147Z" fill="white" stroke="#08082A" stroke-width="3" stroke-miterlimit="10" stroke-linecap="round" stroke-linejoin="round"/>
<path d="M584.302 388.945C564.833 383.002 543.56 383.1 524.147 389.226" stroke="#08082A" stroke-width="3" stroke-miterlimit="10" stroke-linecap="round" stroke-linejoin="round"/>
<path d="M563.263 373.693C571.843 360.291 556.92 351.746 559.259 339.441C562.15 330.204 574.613 329.701 580.035 322.666C586.264 313.097 582.558 300.12 583.26 289.232C582.291 263.363 548.999 286.405 542.265 297.949C531.349 314.011 523.104 332.319 517.152 350.782C514.909 359.389 513.629 369.642 505.854 375.159C508.106 378.609 510.358 382.056 512.609 385.506C513.559 386.959 522.3 386.737 524.088 386.819C538.021 387.262 554.437 385.857 563.263 373.693Z" fill="#08082A" stroke="#08082A" stroke-width="3" stroke-miterlimit="10" stroke-linecap="round" stroke-linejoin="round"/>
<path d="M498.811 309.562C501.851 306.809 505.72 303.815 505.372 299.732C503.156 291.721 494.369 289.91 498.99 278.866C507.854 262.721 524.621 269.218 520.473 243.362C519.649 236.969 518.63 230.088 521.642 224.386C530.403 208.664 562.372 212.938 554.746 234.758C547.933 251.281 538.457 257.946 550.69 275.614C564.939 305.699 545.002 339.02 525.46 361.796C517.377 372.212 503.54 376.302 495.977 363.304C493.277 358.88 492.495 353.734 489.98 349.275C483.58 336.252 488.368 319.154 498.811 309.562Z" fill="white" stroke="#08082A" stroke-width="3" stroke-miterlimit="10" stroke-linecap="round" stroke-linejoin="round"/>
<path d="M533.706 248.356C528.025 266.315 533.042 329.807 492.741 357.596" stroke="#08082A" stroke-width="3" stroke-miterlimit="10" stroke-linecap="round" stroke-linejoin="round"/>
<path d="M538.86 265.83C538.86 265.83 536.19 276.201 529.729 276.695" stroke="#08082A" stroke-width="3" stroke-miterlimit="10" stroke-linecap="round" stroke-linejoin="round"/>
<path d="M517.75 288.542C516.256 294.518 514.947 300.611 515.09 306.769C515.233 312.926 515.558 317.456 519.52 322.172" stroke="#08082A" stroke-width="3" stroke-miterlimit="10" stroke-linecap="round" stroke-linejoin="round"/>
<path d="M538.86 286.362C538.447 296.693 536.078 306.942 531.914 316.406C529.914 320.951 518.949 334.113 514.003 333.667" stroke="#08082A" stroke-width="3" stroke-miterlimit="10" stroke-linecap="round" stroke-linejoin="round"/>
<path d="M588.171 254.586C575.862 254.586 565.883 244.613 565.883 232.312C565.883 220.011 575.862 210.039 588.171 210.039C600.481 210.039 610.46 220.011 610.46 232.312C610.46 244.613 600.481 254.586 588.171 254.586Z" stroke="#08082A" stroke-miterlimit="10" stroke-linecap="round" stroke-linejoin="round"/>
<path d="M588.171 251.433C577.603 251.433 569.036 242.872 569.036 232.312C569.036 221.752 577.603 213.192 588.171 213.192C598.739 213.192 607.306 221.752 607.306 232.312C607.306 242.872 598.739 251.433 588.171 251.433Z" stroke="#08082A" stroke-miterlimit="10" stroke-linecap="round" stroke-linejoin="round"/>
<path d="M583.951 237.831C583.951 236.91 584.275 236.131 584.921 235.501C585.568 234.869 586.659 234.298 588.193 233.787C590.331 233.135 591.889 232.287 592.866 231.239C593.844 230.191 594.333 228.861 594.333 227.246C594.333 225.603 593.854 224.253 592.896 223.201C591.938 222.148 590.621 221.521 588.945 221.322V218.029H586.702V221.337C585.016 221.567 583.705 222.274 582.766 223.458C581.829 224.642 581.358 226.26 581.358 228.314H584.128C584.128 226.897 584.464 225.769 585.137 224.935C585.809 224.1 586.717 223.683 587.861 223.683C589.054 223.683 589.968 223.991 590.6 224.609C591.233 225.228 591.548 226.088 591.548 227.193C591.548 228.217 591.214 229.033 590.547 229.641C589.881 230.249 588.781 230.801 587.251 231.299C585.72 231.796 584.527 232.343 583.67 232.939C582.812 233.535 582.18 234.23 581.774 235.022C581.369 235.814 581.164 236.741 581.164 237.804C581.164 239.499 581.674 240.861 582.691 241.894C583.709 242.926 585.137 243.537 586.973 243.728V246.6H589.201V243.728C591.067 243.558 592.53 242.894 593.588 241.735C594.647 240.577 595.177 239.006 595.177 237.02H592.393C592.393 238.414 592.027 239.487 591.296 240.238C590.563 240.989 589.525 241.366 588.18 241.366C586.866 241.366 585.833 241.05 585.079 240.419C584.326 239.787 583.951 238.925 583.951 237.831Z" stroke="#08082A" stroke-miterlimit="10" stroke-linecap="round" stroke-linejoin="round"/>
<path d="M569.342 452.181V579.34" stroke="#08082A" stroke-width="3" stroke-miterlimit="10" stroke-linecap="round" stroke-linejoin="round" stroke-dasharray="37.98 37.98"/>
<path d="M462.832 324.625V579.34" stroke="#08082A" stroke-width="3" stroke-miterlimit="10" stroke-linecap="round" stroke-linejoin="round" stroke-dasharray="37.98 37.98"/>
<path d="M205.669 316.255V579.34" stroke="#08082A" stroke-width="3" stroke-miterlimit="10" stroke-linecap="round" stroke-linejoin="round" stroke-dasharray="37.98 37.98"/>
<path d="M112.59 134.884V579.34" stroke="#08082A" stroke-width="3" stroke-miterlimit="10" stroke-linecap="round" stroke-linejoin="round" stroke-dasharray="37.98 37.98"/>
<path d="M569.341 583.725C566.918 583.725 564.954 581.762 564.954 579.34C564.954 576.919 566.918 574.956 569.341 574.956C571.765 574.956 573.729 576.919 573.729 579.34C573.729 581.762 571.765 583.725 569.341 583.725Z" fill="#08082A" stroke="#08082A" stroke-width="3" stroke-miterlimit="10" stroke-linecap="round" stroke-linejoin="round"/>
<path d="M462.832 583.725C460.409 583.725 458.445 581.762 458.445 579.34C458.445 576.919 460.409 574.956 462.832 574.956C465.256 574.956 467.22 576.919 467.22 579.34C467.22 581.762 465.256 583.725 462.832 583.725Z" fill="#08082A" stroke="#08082A" stroke-width="3" stroke-miterlimit="10" stroke-linecap="round" stroke-linejoin="round"/>
<path d="M205.669 583.725C203.245 583.725 201.281 581.762 201.281 579.34C201.281 576.919 203.245 574.956 205.669 574.956C208.092 574.956 210.056 576.919 210.056 579.34C210.056 581.762 208.092 583.725 205.669 583.725Z" fill="#08082A" stroke="#08082A" stroke-width="3" stroke-miterlimit="10" stroke-linecap="round" stroke-linejoin="round"/>
<path d="M112.59 583.725C110.166 583.725 108.202 581.762 108.202 579.34C108.202 576.919 110.166 574.956 112.59 574.956C115.013 574.956 116.977 576.919 116.977 579.34C116.977 581.762 115.013 583.725 112.59 583.725Z" fill="#08082A" stroke="#08082A" stroke-width="3" stroke-miterlimit="10" stroke-linecap="round" stroke-linejoin="round"/>
<path d="M97.4307 102.796L134.53 141.859L126.235 146.14L213.347 310.62L464.681 311.896L578.118 447.996L564.156 459.225L455.852 326.618H201.945L113.567 152.676L104.014 157.605L97.4307 102.796Z" fill="white" stroke="#08082A" stroke-width="3" stroke-miterlimit="10" stroke-linecap="round" stroke-linejoin="round"/>
<path d="M0.538452 283.034C0.538452 284.468 0.627087 285.882 0.794132 287.272L35.6057 283.034L18.5365 252.417C7.79801 258.405 0.538452 269.872 0.538452 283.034Z" fill="#08082A" stroke="#08082A" stroke-width="3" stroke-miterlimit="10" stroke-linecap="round" stroke-linejoin="round"/>
<path d="M0.795958 287.273C2.88571 304.626 17.6759 318.076 35.6076 318.076C54.9796 318.076 70.6801 302.388 70.6801 283.034C70.6801 263.677 54.9796 247.988 35.6076 247.988C29.4082 247.988 23.5889 249.596 18.5384 252.417L35.6076 283.034L0.795958 287.273Z" stroke="#08082A" stroke-width="3" stroke-miterlimit="10" stroke-linecap="round" stroke-linejoin="round"/>
<path d="M0.539185 384.577C0.539185 386.012 0.627819 387.425 0.794861 388.815L35.6064 384.577L40.5018 349.871C38.903 349.646 37.2666 349.53 35.6064 349.53C29.4071 349.53 23.5878 351.138 18.5373 353.959C7.80045 359.948 0.539185 371.415 0.539185 384.577Z" fill="#08082A" stroke="#08082A" stroke-width="3" stroke-miterlimit="10" stroke-linecap="round" stroke-linejoin="round"/>
<path d="M0.795958 388.817C2.88571 406.169 17.6759 419.619 35.6076 419.619C54.9796 419.619 70.6801 403.931 70.6801 384.577C70.6801 366.879 57.5569 352.252 40.5047 349.87L35.6093 384.577L0.795958 388.817Z" stroke="#08082A" stroke-width="3" stroke-miterlimit="10" stroke-linecap="round" stroke-linejoin="round"/>
<path d="M503.301 240.243C482.521 222.438 470.946 194.432 473.098 167.163" stroke="#08082A" stroke-width="3" stroke-miterlimit="10" stroke-linecap="round" stroke-linejoin="round"/>
<path d="M452.99 178.688C449.489 188.978 450.844 200.806 456.58 210.04" stroke="#08082A" stroke-width="3" stroke-miterlimit="10" stroke-linecap="round" stroke-linejoin="round"/>
<path d="M139.422 59.3577C123.168 59.3577 109.992 46.191 109.992 29.9489C109.992 13.7068 123.168 0.540039 139.422 0.540039C155.676 0.540039 168.852 13.7068 168.852 29.9489C168.852 46.191 155.676 59.3577 139.422 59.3577Z" stroke="#08082A" stroke-miterlimit="10" stroke-linecap="round" stroke-linejoin="round"/>
<path d="M139.422 55.1964C125.468 55.1964 114.156 43.8927 114.156 29.9489C114.156 16.0051 125.468 4.70142 139.422 4.70142C153.376 4.70142 164.688 16.0051 164.688 29.9489C164.688 43.8927 153.376 55.1964 139.422 55.1964Z" stroke="#08082A" stroke-miterlimit="10" stroke-linecap="round" stroke-linejoin="round"/>
<path d="M133.848 37.236C133.848 36.0181 134.276 34.9926 135.13 34.158C135.984 33.3233 137.424 32.5687 139.453 31.8942C142.273 31.034 144.331 29.9115 145.623 28.5283C146.915 27.1452 147.561 25.3873 147.561 23.2563C147.561 21.0862 146.929 19.3045 145.664 17.9145C144.399 16.5246 142.66 15.6967 140.448 15.4327V11.0857H137.487V15.4549C135.261 15.7598 133.529 16.6932 132.292 18.2552C131.053 19.8172 130.434 21.955 130.434 24.6685H134.09C134.09 22.7964 134.533 21.3094 135.421 20.2073C136.309 19.1052 137.508 18.5533 139.018 18.5533C140.595 18.5533 141.8 18.9604 142.635 19.7763C143.47 20.5923 143.886 21.7284 143.886 23.1882C143.886 24.5407 143.446 25.6189 142.565 26.4212C141.684 27.2235 140.233 27.9526 138.213 28.6101C136.193 29.2659 134.617 29.9881 133.485 30.7768C132.351 31.5654 131.518 32.4819 130.981 33.5277C130.444 34.5736 130.176 35.7983 130.176 37.2019C130.176 39.4385 130.85 41.2389 132.193 42.6033C133.538 43.966 135.421 44.7734 137.847 45.0255V48.8173H140.787V45.0204C143.252 44.7956 145.181 43.9184 146.579 42.3887C147.977 40.8591 148.676 38.7844 148.676 36.1646H144.999C144.999 38.0042 144.515 39.4214 143.548 40.4145C142.582 41.4076 141.21 41.9033 139.435 41.9033C137.7 41.9033 136.335 41.4859 135.343 40.653C134.344 39.8166 133.848 38.6788 133.848 37.236Z" stroke="#08082A" stroke-miterlimit="10" stroke-linecap="round" stroke-linejoin="round"/>
<path d="M328.801 41.7243C317.965 41.7243 309.181 32.9464 309.181 22.1184C309.181 11.2903 317.965 2.51245 328.801 2.51245C339.638 2.51245 348.422 11.2903 348.422 22.1184C348.422 32.9464 339.638 41.7243 328.801 41.7243Z" stroke="#08082A" stroke-miterlimit="10" stroke-linecap="round" stroke-linejoin="round"/>
<path d="M328.802 38.9495C319.499 38.9495 311.958 31.414 311.958 22.1185C311.958 12.8229 319.499 5.28735 328.802 5.28735C338.105 5.28735 345.646 12.8229 345.646 22.1185C345.646 31.414 338.105 38.9495 328.802 38.9495Z" stroke="#08082A" stroke-miterlimit="10" stroke-linecap="round" stroke-linejoin="round"/>
<path d="M325.086 26.9763C325.086 26.1638 325.37 25.4808 325.94 24.9238C326.509 24.3685 327.47 23.8643 328.82 23.4146C330.702 22.8405 332.073 22.0927 332.933 21.1712C333.794 20.2497 334.225 19.0778 334.225 17.6571C334.225 16.2093 333.804 15.0237 332.961 14.0971C332.117 13.1704 330.958 12.6185 329.483 12.4431V9.54224H327.509V12.455C326.027 12.6577 324.871 13.2795 324.046 14.3219C323.221 15.3627 322.807 16.7884 322.807 18.5974H325.244C325.244 17.3488 325.541 16.3575 326.132 15.6233C326.724 14.8891 327.523 14.5212 328.53 14.5212C329.582 14.5212 330.385 14.7938 330.941 15.3371C331.496 15.8805 331.776 16.6385 331.776 17.6111C331.776 18.5122 331.483 19.2311 330.895 19.7659C330.307 20.3008 329.34 20.7862 327.994 21.224C326.647 21.6618 325.595 22.1421 324.84 22.6685C324.085 23.1931 323.529 23.8046 323.171 24.5013C322.814 25.198 322.635 26.0156 322.635 26.9508C322.635 28.4429 323.083 29.6421 323.979 30.5517C324.876 31.4613 326.132 31.9996 327.748 32.1665V34.6943H329.708V32.1665C331.351 32.0166 332.638 31.4324 333.569 30.412C334.501 29.3934 334.967 28.0103 334.967 26.2626H332.516C332.516 27.489 332.194 28.4327 331.549 29.0953C330.905 29.7579 329.991 30.0884 328.807 30.0884C327.649 30.0884 326.741 29.8108 326.078 29.2537C325.416 28.6967 325.086 27.9387 325.086 26.9763Z" stroke="#08082A" stroke-miterlimit="10" stroke-linecap="round" stroke-linejoin="round"/>
<path d="M512.635 161.339C495.424 161.339 481.473 147.398 481.473 130.2C481.473 113.002 495.424 99.0602 512.635 99.0602C529.845 99.0602 543.797 113.002 543.797 130.2C543.797 147.398 529.845 161.339 512.635 161.339Z" stroke="#08082A" stroke-miterlimit="10" stroke-linecap="round" stroke-linejoin="round"/>
<path d="M512.635 156.932C497.86 156.932 485.882 144.964 485.882 130.2C485.882 115.435 497.86 103.467 512.635 103.467C527.41 103.467 539.387 115.435 539.387 130.2C539.387 144.964 527.41 156.932 512.635 156.932Z" stroke="#08082A" stroke-miterlimit="10" stroke-linecap="round" stroke-linejoin="round"/>
<path d="M506.734 137.916C506.734 136.627 507.185 135.54 508.09 134.657C508.995 133.775 510.521 132.976 512.667 132.261C515.655 131.349 517.832 130.162 519.2 128.697C520.567 127.232 521.251 125.372 521.251 123.115C521.251 120.817 520.581 118.932 519.241 117.46C517.902 115.988 516.061 115.113 513.719 114.832V110.228H510.584V114.852C508.228 115.174 506.394 116.162 505.082 117.816C503.771 119.47 503.115 121.734 503.115 124.607H506.986C506.986 122.625 507.456 121.051 508.395 119.882C509.335 118.715 510.605 118.131 512.203 118.131C513.872 118.131 515.149 118.564 516.033 119.426C516.916 120.289 517.36 121.494 517.36 123.039C517.36 124.471 516.893 125.612 515.96 126.461C515.028 127.311 513.492 128.082 511.353 128.777C509.214 129.472 507.545 130.237 506.345 131.07C505.145 131.905 504.262 132.876 503.694 133.983C503.127 135.09 502.842 136.386 502.842 137.872C502.842 140.241 503.555 142.147 504.978 143.59C506.401 145.034 508.397 145.888 510.964 146.155V150.17H514.078V146.155C516.688 145.917 518.732 144.988 520.211 143.37C521.691 141.752 522.431 139.555 522.431 136.78H518.537C518.537 138.729 518.026 140.227 517.002 141.278C515.977 142.329 514.527 142.856 512.647 142.856C510.809 142.856 509.364 142.415 508.312 141.531C507.259 140.65 506.734 139.444 506.734 137.916Z" stroke="#08082A" stroke-miterlimit="10" stroke-linecap="round" stroke-linejoin="round"/>
<path d="M381.72 190.026C381.72 190.026 395.815 196.536 413.234 221.383C434.944 252.351 445.33 275.566 418.254 284.863C398.807 291.54 391.327 278.884 369.785 279.98C362.904 281.874 361.009 284.265 358.416 282.969C358.416 282.969 353.263 276.326 344.221 278.717C345.683 274.466 354.061 265.763 377.197 265.497C400.332 265.232 408.045 262.009 397.675 244.868C390.693 234.305 385.641 232.942 382.45 229.754" fill="white"/>
<path d="M381.72 190.026C381.72 190.026 395.815 196.536 413.234 221.383C434.944 252.351 445.33 275.566 418.254 284.863C398.807 291.54 391.327 278.884 369.785 279.98C362.904 281.874 361.009 284.265 358.416 282.969C358.416 282.969 353.263 276.326 344.221 278.717C345.683 274.466 354.061 265.763 377.197 265.497C400.332 265.232 408.045 262.009 397.675 244.868C390.693 234.305 385.641 232.942 382.45 229.754" stroke="#08082A" stroke-width="3" stroke-miterlimit="10" stroke-linecap="round" stroke-linejoin="round"/>
<path d="M264.305 304.248H370.83V311.191H264.305V304.248Z" fill="#08082A" stroke="#08082A" stroke-width="3" stroke-miterlimit="10" stroke-linecap="round" stroke-linejoin="round"/>
<path d="M298.175 252.76H234.202L264.306 311.189H330.884L298.175 252.76Z" fill="white" stroke="#08082A" stroke-width="3" stroke-miterlimit="10" stroke-linecap="round" stroke-linejoin="round"/>
<path d="M293.918 252.76H229.946L260.051 311.189H326.628L293.918 252.76Z" fill="white" stroke="#08082A" stroke-width="3" stroke-miterlimit="10" stroke-linecap="round" stroke-linejoin="round"/>
<path d="M258.324 536.82C258.324 536.82 251.351 534.628 251.38 534.827C251.409 535.027 253.538 541.385 253.538 541.385L246.091 540.541L247.686 547.492L241.77 546.652L243.1 551.103" stroke="white" stroke-width="3" stroke-miterlimit="10" stroke-linecap="round" stroke-linejoin="round"/>
<path d="M415.363 490.449C415.063 490.649 407.485 489.751 407.485 490.051C407.485 490.35 413.667 496.728 413.369 496.728C413.07 496.728 405.889 496.728 405.889 496.728L409.579 501.213L404.594 502.111L408.582 505.698" stroke="white" stroke-width="3" stroke-miterlimit="10" stroke-linecap="round" stroke-linejoin="round"/>
<path d="M565.925 303.311C558.867 321.16 551.677 339.247 540.17 354.613C528.662 369.979 525.061 373.653 510.102 379.135" stroke="white" stroke-width="3" stroke-miterlimit="10" stroke-linecap="round" stroke-linejoin="round"/>
<path d="M551.362 363.072C549.717 367.193 545.807 370.076 541.615 371.543C537.424 373.008 530.195 370.635 525.761 370.865" stroke="white" stroke-width="3" stroke-miterlimit="10" stroke-linecap="round" stroke-linejoin="round"/>
<path d="M382.983 190.702L378.345 193.431" stroke="#08082A" stroke-width="3" stroke-miterlimit="10" stroke-linecap="round" stroke-linejoin="round"/>
<path d="M354.605 176.615C354.605 176.615 351.802 181.323 353.398 184.645C354.475 186.888 355.126 187.302 355.126 187.302" fill="white"/>
<path d="M354.605 176.615C354.605 176.615 351.802 181.323 353.398 184.645C354.475 186.888 355.126 187.302 355.126 187.302" stroke="#08082A" stroke-width="3" stroke-miterlimit="10" stroke-linecap="round" stroke-linejoin="round"/>
<path d="M374.766 328.989C374.101 332.323 374.998 335.934 377.144 338.571C379.29 341.208 382.644 342.821 386.045 342.851" stroke="#08082A" stroke-width="3" stroke-miterlimit="10" stroke-linecap="round" stroke-linejoin="round"/>
<path d="M368.456 428.707C367.556 427.513 365.82 427.032 364.435 427.593C363.049 428.153 362.137 429.705 362.323 431.189C361.435 430.374 360.357 429.768 359.2 429.431" stroke="#08082A" stroke-width="3" stroke-miterlimit="10" stroke-linecap="round" stroke-linejoin="round"/>
<path d="M359.006 421.643C359.35 420.515 357.9 419.599 356.725 419.71C355.551 419.819 354.46 420.471 353.28 420.468C351.946 420.464 350.667 419.515 350.277 418.241" stroke="#08082A" stroke-width="3" stroke-miterlimit="10" stroke-linecap="round" stroke-linejoin="round"/>
<path d="M287.359 429.456C287.324 428.414 286.045 427.816 285.017 428C283.99 428.184 283.136 428.865 282.215 429.359C281.295 429.853 280.112 430.148 279.246 429.567C278.303 428.935 277.848 427.377 276.72 427.484" stroke="#08082A" stroke-width="3" stroke-miterlimit="10" stroke-linecap="round" stroke-linejoin="round"/>
<path d="M282.391 435.674C280.933 435.457 279.476 435.239 278.019 435.023C277.54 434.951 277.047 434.875 276.633 434.624C276.219 434.374 275.902 433.9 275.982 433.423" stroke="#08082A" stroke-width="3" stroke-miterlimit="10" stroke-linecap="round" stroke-linejoin="round"/>
<path d="M284.32 284.863C284.02 284.863 274.647 276.695 274.647 276.695L271.058 284.863L278.837 292.038L284.32 284.863Z" fill="#08082A" stroke="#08082A" stroke-width="3" stroke-miterlimit="10" stroke-linecap="round" stroke-linejoin="round"/>
<path d="M359.915 281.974C359.915 281.974 354.663 273.735 347.748 276.326C340.832 278.917 349.675 282.836 351.936 283.035C354.196 283.235 358.386 286.227 359.915 281.974Z" fill="#08082A" stroke="#08082A" stroke-width="3" stroke-miterlimit="10" stroke-linecap="round" stroke-linejoin="round"/>
<path d="M355.551 285.763C355.551 285.763 361.655 295.571 351.483 295.571C341.31 295.571 338.936 294.295 338.936 294.295C337.664 296.448 342.836 303.863 340.376 304.66C337.918 305.457 332.322 300.195 331.899 296.049C331.475 291.903 329.781 285.524 340.376 281.14C350.973 276.753 350.973 276.753 350.973 276.753C354.767 277.063 357.174 279.104 358.434 282.574L355.551 285.763Z" fill="white" stroke="#08082A" stroke-width="3" stroke-miterlimit="10" stroke-linecap="round" stroke-linejoin="round"/>
<path d="M76.8877 252.949H72.9656C89.4534 269.632 80.6786 292.038 80.6786 292.038" stroke="#08082A" stroke-width="3" stroke-miterlimit="10" stroke-linecap="round" stroke-linejoin="round"/>
<path d="M72.3998 256.86L72.964 252.949" stroke="#08082A" stroke-width="3" stroke-miterlimit="10" stroke-linecap="round" stroke-linejoin="round"/>
</g>
<defs>
<linearGradient id="paint0_linear_2_671" x1="253.93" y1="531.843" x2="426.632" y2="444.624" gradientUnits="userSpaceOnUse">
<stop stop-color="#FF5A09"/>
<stop offset="1" stop-color="#FF894E"/>
</linearGradient>
<linearGradient id="paint1_linear_2_671" x1="323.347" y1="481.883" x2="473.999" y2="396.372" gradientUnits="userSpaceOnUse">
<stop stop-color="#FF5A09"/>
<stop offset="1" stop-color="#FF894E"/>
</linearGradient>
<linearGradient id="paint2_linear_2_671" x1="312.576" y1="308.675" x2="414.413" y2="253.337" gradientUnits="userSpaceOnUse">
<stop stop-color="#FF5A09"/>
<stop offset="1" stop-color="#FF894E"/>
</linearGradient>
<linearGradient id="paint3_linear_2_671" x1="378.53" y1="308.675" x2="304.635" y2="303.63" gradientUnits="userSpaceOnUse">
<stop stop-color="#4ACF8C"/>
<stop offset="1" stop-color="#75EDA6"/>
</linearGradient>
<clipPath id="clip0_2_671">
<rect width="611" height="647" fill="white" transform="matrix(-1 0 0 1 611 0)"/>
</clipPath>
</defs>
</svg>
