<svg width="517" height="321" viewBox="0 0 517 321" fill="none" xmlns="http://www.w3.org/2000/svg">
<path d="M62.2 8.2C61.9333 11.6 61.7333 14.8667 61.6 18C61.5333 21.1333 61.5 23.5333 61.5 25.2C61.5 26.6667 61.5333 28.0667 61.6 29.4C61.6667 30.7333 61.7333 31.8667 61.8 32.8H59.5C58.4333 27.2 57.0667 22.7667 55.4 19.5C53.8 16.2333 51.8667 13.9333 49.6 12.6C47.3333 11.2 44.6667 10.5 41.6 10.5H39.3V67.6C39.3 70.2667 39.5667 72.2667 40.1 73.6C40.7 74.9333 41.7667 75.8333 43.3 76.3C44.8333 76.7 47.0667 76.9333 50 77V79C47.9333 78.9333 45.1667 78.8667 41.7 78.8C38.3 78.7333 34.7333 78.7 31 78.7C27.3333 78.7 23.8667 78.7333 20.6 78.8C17.3333 78.8667 14.7 78.9333 12.7 79V77C15.7 76.9333 17.9667 76.7 19.5 76.3C21.0333 75.8333 22.0667 74.9333 22.6 73.6C23.1333 72.2667 23.4 70.2667 23.4 67.6V10.5H21.2C18.1333 10.5 15.4667 11.2 13.2 12.6C10.9333 13.9333 9 16.2333 7.4 19.5C5.8 22.7 4.4 27.1333 3.2 32.8H0.9C1.03333 31.8667 1.1 30.7333 1.1 29.4C1.16667 28.0667 1.2 26.6667 1.2 25.2C1.2 23.5333 1.13333 21.1333 1 18C0.933333 14.8667 0.766667 11.6 0.5 8.2C3.56667 8.26667 6.9 8.33333 10.5 8.4C14.1667 8.46666 17.8333 8.5 21.5 8.5C25.1667 8.5 28.4667 8.5 31.4 8.5C34.4 8.5 37.7 8.5 41.3 8.5C44.9667 8.5 48.6333 8.46666 52.3 8.4C55.9667 8.33333 59.2667 8.26667 62.2 8.2ZM77.7602 79.7C73.2935 79.7 70.0602 78.5333 68.0602 76.2C66.0602 73.8667 65.0602 71.0333 65.0602 67.7C65.0602 64.8333 65.6935 62.5 66.9602 60.7C68.2935 58.9 69.9935 57.4333 72.0602 56.3C74.1268 55.1 76.2935 54.1333 78.5602 53.4C80.8935 52.6 83.0935 51.8333 85.1602 51.1C87.2935 50.3 88.9935 49.4 90.2602 48.4C91.5935 47.4 92.2602 46.1333 92.2602 44.6V36.8C92.2602 35.0667 91.9602 33.5333 91.3602 32.2C90.8268 30.8 89.9602 29.7333 88.7602 29C87.6268 28.2667 86.1268 27.9 84.2602 27.9C82.9268 27.9 81.5935 28.1 80.2602 28.5C78.9268 28.8333 77.8268 29.4333 76.9602 30.3C78.8268 30.9667 80.2602 32 81.2602 33.4C82.3268 34.7333 82.8602 36.2667 82.8602 38C82.8602 40.2667 82.0602 42.0667 80.4602 43.4C78.9268 44.7333 77.0935 45.4 74.9602 45.4C72.5602 45.4 70.7268 44.6667 69.4602 43.2C68.2602 41.6667 67.6602 39.8333 67.6602 37.7C67.6602 35.7667 68.1268 34.1667 69.0602 32.9C70.0602 31.6333 71.4268 30.4333 73.1602 29.3C75.0268 28.2333 77.2602 27.4 79.8602 26.8C82.5268 26.2 85.3935 25.9 88.4602 25.9C91.5268 25.9 94.2935 26.2333 96.7602 26.9C99.2268 27.5 101.293 28.6333 102.96 30.3C104.493 31.8333 105.493 33.7333 105.96 36C106.427 38.2 106.66 41 106.66 44.4V71.6C106.66 73.2 106.827 74.3333 107.16 75C107.493 75.6667 108.06 76 108.86 76C109.527 76 110.16 75.8333 110.76 75.5C111.36 75.1667 111.927 74.7667 112.46 74.3L113.46 76C112.06 77.2 110.427 78.1333 108.56 78.8C106.76 79.4 104.727 79.7 102.46 79.7C98.4602 79.7 95.7935 78.9 94.4602 77.3C93.1935 75.6333 92.5268 73.7333 92.4602 71.6C90.7935 74.3333 88.7268 76.3667 86.2602 77.7C83.8602 79.0333 81.0268 79.7 77.7602 79.7ZM85.4602 73.3C86.7268 73.3 87.8935 73 88.9602 72.4C90.0935 71.8 91.1935 70.7333 92.2602 69.2V48.7C91.4602 50.0333 90.3268 51.1667 88.8602 52.1C87.4602 52.9667 85.9935 53.9333 84.4602 55C82.9935 56 81.7602 57.3 80.7602 58.9C79.7602 60.5 79.2602 62.6333 79.2602 65.3C79.2602 68.1667 79.8602 70.2333 81.0602 71.5C82.2602 72.7 83.7268 73.3 85.4602 73.3ZM136.618 0.699995V69.7C136.618 72.5 137.051 74.4 137.918 75.4C138.851 76.4 140.418 76.9 142.618 76.9V79C141.351 78.9333 139.485 78.8667 137.018 78.8C134.618 78.6667 132.151 78.6 129.618 78.6C127.018 78.6 124.385 78.6667 121.718 78.8C119.118 78.8667 117.151 78.9333 115.818 79V76.9C118.151 76.9 119.785 76.4 120.718 75.4C121.718 74.4 122.218 72.5 122.218 69.7V12.7C122.218 9.7 121.751 7.5 120.818 6.1C119.951 4.63333 118.285 3.9 115.818 3.9V1.8C117.951 2 120.018 2.09999 122.018 2.09999C124.751 2.09999 127.351 2 129.818 1.8C132.285 1.53333 134.551 1.16666 136.618 0.699995ZM169.218 27.3V29.3C167.151 29.7 165.085 30.5667 163.018 31.9C160.951 33.2333 158.851 34.9333 156.718 37L149.018 45L150.018 43.1L167.118 71.7C167.851 72.9 168.618 73.9667 169.418 74.9C170.218 75.8333 171.185 76.5 172.318 76.9V79C171.318 78.9333 169.818 78.8667 167.818 78.8C165.818 78.6667 163.818 78.6 161.818 78.6C159.351 78.6 156.885 78.6667 154.418 78.8C151.951 78.8667 150.118 78.9333 148.918 79V76.9C150.251 76.9 151.151 76.6 151.618 76C152.085 75.3333 152.018 74.5 151.418 73.5L141.518 55.6C140.718 54.3333 139.918 53.5333 139.118 53.2C138.385 52.8 137.385 52.5667 136.118 52.5V50.6C137.518 50.4667 138.718 50.2333 139.718 49.9C140.785 49.5667 141.751 48.9333 142.618 48L150.218 40.6C152.485 38.4667 153.618 36.5667 153.618 34.9C153.618 33.2333 152.885 31.9 151.418 30.9C150.018 29.9 148.151 29.3667 145.818 29.3V27.3C147.685 27.3667 149.718 27.4333 151.918 27.5C154.118 27.5667 155.985 27.6 157.518 27.6C158.851 27.6 160.251 27.6 161.718 27.6C163.251 27.5333 164.685 27.5 166.018 27.5C167.351 27.4333 168.418 27.3667 169.218 27.3ZM198.27 25.9C204.137 25.9 208.737 27.6333 212.07 31.1C215.404 34.5667 217.07 40.2333 217.07 48.1H184.17L183.97 46.2H204.47C204.537 42.9333 204.337 39.9333 203.87 37.2C203.404 34.4 202.67 32.1667 201.67 30.5C200.67 28.8333 199.337 28 197.67 28C195.337 28 193.337 29.4667 191.67 32.4C190.07 35.3333 189.104 40.2 188.77 47L189.07 47.6C189.004 48.4 188.937 49.2333 188.87 50.1C188.87 50.9667 188.87 51.8667 188.87 52.8C188.87 57.4 189.504 61.1333 190.77 64C192.104 66.8667 193.77 68.9667 195.77 70.3C197.77 71.5667 199.804 72.2 201.87 72.2C203.87 72.2 206.037 71.7 208.37 70.7C210.77 69.7 213.004 67.5333 215.07 64.2L216.87 64.8C216.07 67.3333 214.804 69.8 213.07 72.2C211.337 74.6 209.137 76.5667 206.47 78.1C203.804 79.6333 200.604 80.4 196.87 80.4C192.337 80.4 188.337 79.4333 184.87 77.5C181.404 75.5667 178.67 72.6333 176.67 68.7C174.737 64.7667 173.77 59.7667 173.77 53.7C173.77 47.5 174.804 42.3333 176.87 38.2C179.004 34.0667 181.904 31 185.57 29C189.304 26.9333 193.537 25.9 198.27 25.9ZM292.171 27.3V29.3C290.904 29.6333 289.704 30.4333 288.571 31.7C287.438 32.9 286.338 34.9667 285.271 37.9L271.171 77.5L267.471 84.5L245.671 35C244.538 32.4 243.404 30.8333 242.271 30.3C241.204 29.7 240.271 29.4 239.471 29.4V27.3C241.671 27.5 243.938 27.6667 246.271 27.8C248.671 27.8667 250.971 27.9 253.171 27.9C255.904 27.9 258.404 27.8333 260.671 27.7C262.938 27.5667 265.071 27.4333 267.071 27.3V29.4C265.738 29.4 264.471 29.5 263.271 29.7C262.138 29.8333 261.338 30.3 260.871 31.1C260.471 31.8333 260.671 33.1333 261.471 35L274.071 65.4L273.171 66L280.571 45.3C282.438 39.9 282.738 35.9667 281.471 33.5C280.204 30.9667 277.971 29.5667 274.771 29.3V27.3C276.304 27.3667 277.971 27.4333 279.771 27.5C281.571 27.5667 283.138 27.6 284.471 27.6C285.804 27.6 287.204 27.5667 288.671 27.5C290.138 27.4333 291.304 27.3667 292.171 27.3ZM271.171 77.5L267.371 88.2C266.104 91.6 264.638 93.9667 262.971 95.3C262.038 96.1 260.838 96.7 259.371 97.1C257.904 97.5667 256.204 97.8 254.271 97.8C252.671 97.8 251.004 97.5333 249.271 97C247.604 96.4667 246.204 95.6 245.071 94.4C243.938 93.2 243.371 91.6667 243.371 89.8C243.371 87.7333 244.104 86.0667 245.571 84.8C247.038 83.6 248.971 83 251.371 83C253.571 83 255.371 83.5333 256.771 84.6C258.171 85.6667 258.871 87.2333 258.871 89.3C258.871 90.6333 258.438 91.9 257.571 93.1C256.771 94.3 255.538 95.2 253.871 95.8C254.204 95.8667 254.604 95.9 255.071 95.9C255.538 95.9 255.904 95.9 256.171 95.9C258.171 95.9 259.938 95.2667 261.471 94C263.004 92.7333 264.271 90.7333 265.271 88L268.771 77.7L271.171 77.5ZM319.462 25.9C324.328 25.9 328.595 26.8 332.262 28.6C335.928 30.4 338.795 33.3 340.862 37.3C342.928 41.3 343.962 46.6 343.962 53.2C343.962 59.8 342.928 65.1 340.862 69.1C338.795 73.0333 335.928 75.9 332.262 77.7C328.595 79.5 324.328 80.4 319.462 80.4C314.728 80.4 310.495 79.5 306.762 77.7C303.095 75.9 300.195 73.0333 298.062 69.1C295.995 65.1 294.962 59.8 294.962 53.2C294.962 46.6 295.995 41.3 298.062 37.3C300.195 33.3 303.095 30.4 306.762 28.6C310.495 26.8 314.728 25.9 319.462 25.9ZM319.462 27.9C316.795 27.9 314.562 29.9 312.762 33.9C310.962 37.8333 310.062 44.2667 310.062 53.2C310.062 62.1333 310.962 68.5667 312.762 72.5C314.562 76.4333 316.795 78.4 319.462 78.4C322.195 78.4 324.428 76.4333 326.162 72.5C327.962 68.5667 328.862 62.1333 328.862 53.2C328.862 44.2667 327.962 37.8333 326.162 33.9C324.428 29.9 322.195 27.9 319.462 27.9ZM400.005 26.2V68.1C400.005 71.1 400.471 73.3333 401.405 74.8C402.338 76.2 404.005 76.9 406.405 76.9V79C404.338 78.8 402.271 78.7 400.205 78.7C397.405 78.7 394.805 78.8 392.405 79C390.005 79.2 387.738 79.5667 385.605 80.1V71.1C384.005 74.4333 381.771 76.8333 378.905 78.3C376.105 79.7 372.971 80.4 369.505 80.4C366.705 80.4 364.438 80.0333 362.705 79.3C360.971 78.5667 359.605 77.6333 358.605 76.5C357.471 75.2333 356.671 73.5667 356.205 71.5C355.738 69.4333 355.505 66.7667 355.505 63.5V38.2C355.505 35.2 355.038 33 354.105 31.6C353.238 30.1333 351.571 29.4 349.105 29.4V27.3C351.238 27.5 353.305 27.6 355.305 27.6C358.105 27.6 360.705 27.5 363.105 27.3C365.571 27.0333 367.838 26.6667 369.905 26.2V67.6C369.905 69.2667 370.038 70.7333 370.305 72C370.638 73.2667 371.238 74.2667 372.105 75C372.971 75.6667 374.238 76 375.905 76C378.571 76 380.838 74.9 382.705 72.7C384.638 70.4333 385.605 67.6667 385.605 64.4V38.2C385.605 35.2 385.138 33 384.205 31.6C383.338 30.1333 381.671 29.4 379.205 29.4V27.3C381.338 27.5 383.405 27.6 385.405 27.6C388.205 27.6 390.805 27.5 393.205 27.3C395.671 27.0333 397.938 26.6667 400.005 26.2ZM445.249 25.9C447.383 25.9 449.116 26.3667 450.449 27.3C451.783 28.1667 452.749 29.3 453.349 30.7C454.016 32.1 454.349 33.5667 454.349 35.1C454.349 37.5667 453.616 39.6 452.149 41.2C450.749 42.7333 448.883 43.5 446.549 43.5C444.216 43.5 442.383 42.9333 441.049 41.8C439.783 40.6 439.149 39.0333 439.149 37.1C439.149 35.2333 439.549 33.7 440.349 32.5C441.216 31.2333 442.283 30.1667 443.549 29.3C442.616 29.0333 441.683 29.0667 440.749 29.4C439.016 29.6667 437.449 30.5 436.049 31.9C434.716 33.2333 433.649 34.8333 432.849 36.7C432.049 38.5667 431.649 40.4 431.649 42.2V68.7C431.649 71.9 432.416 74.0667 433.949 75.2C435.549 76.3333 437.916 76.9 441.049 76.9V79C439.516 78.9333 437.283 78.8667 434.349 78.8C431.416 78.6667 428.349 78.6 425.149 78.6C422.483 78.6 419.783 78.6667 417.049 78.8C414.316 78.8667 412.249 78.9333 410.849 79V76.9C413.183 76.9 414.816 76.4 415.749 75.4C416.749 74.4 417.249 72.5 417.249 69.7V38.2C417.249 35.2 416.783 33 415.849 31.6C414.983 30.1333 413.316 29.4 410.849 29.4V27.3C412.983 27.5 415.049 27.6 417.049 27.6C419.849 27.6 422.449 27.5 424.849 27.3C427.316 27.0333 429.583 26.6667 431.649 26.2V35.5C432.449 33.7 433.516 32.0667 434.849 30.6C436.183 29.1333 437.716 28 439.449 27.2C441.183 26.3333 443.116 25.9 445.249 25.9ZM282.516 130.9V147.3H294.316V149.3H282.516V189.7C282.516 191.7 282.883 193.133 283.616 194C284.35 194.8 285.45 195.2 286.916 195.2C288.116 195.2 289.316 194.767 290.516 193.9C291.716 192.967 292.783 191.4 293.716 189.2L295.416 190.1C294.35 193.1 292.716 195.567 290.516 197.5C288.383 199.433 285.45 200.4 281.716 200.4C279.516 200.4 277.583 200.1 275.916 199.5C274.25 198.967 272.85 198.133 271.716 197C270.25 195.533 269.283 193.733 268.816 191.6C268.35 189.4 268.116 186.567 268.116 183.1V149.3H259.716V147.3H268.116V134.1C270.916 134.1 273.483 133.867 275.816 133.4C278.216 132.867 280.45 132.033 282.516 130.9ZM322.782 145.9C327.649 145.9 331.915 146.8 335.582 148.6C339.249 150.4 342.115 153.3 344.182 157.3C346.249 161.3 347.282 166.6 347.282 173.2C347.282 179.8 346.249 185.1 344.182 189.1C342.115 193.033 339.249 195.9 335.582 197.7C331.915 199.5 327.649 200.4 322.782 200.4C318.049 200.4 313.815 199.5 310.082 197.7C306.415 195.9 303.515 193.033 301.382 189.1C299.315 185.1 298.282 179.8 298.282 173.2C298.282 166.6 299.315 161.3 301.382 157.3C303.515 153.3 306.415 150.4 310.082 148.6C313.815 146.8 318.049 145.9 322.782 145.9ZM322.782 147.9C320.115 147.9 317.882 149.9 316.082 153.9C314.282 157.833 313.382 164.267 313.382 173.2C313.382 182.133 314.282 188.567 316.082 192.5C317.882 196.433 320.115 198.4 322.782 198.4C325.515 198.4 327.749 196.433 329.482 192.5C331.282 188.567 332.182 182.133 332.182 173.2C332.182 164.267 331.282 157.833 329.482 153.9C327.749 149.9 325.515 147.9 322.782 147.9ZM395.993 130.9V147.3H407.793V149.3H395.993V189.7C395.993 191.7 396.36 193.133 397.093 194C397.826 194.8 398.926 195.2 400.393 195.2C401.593 195.2 402.793 194.767 403.993 193.9C405.193 192.967 406.26 191.4 407.193 189.2L408.893 190.1C407.826 193.1 406.193 195.567 403.993 197.5C401.86 199.433 398.926 200.4 395.193 200.4C392.993 200.4 391.06 200.1 389.393 199.5C387.726 198.967 386.326 198.133 385.193 197C383.726 195.533 382.76 193.733 382.293 191.6C381.826 189.4 381.593 186.567 381.593 183.1V149.3H373.193V147.3H381.593V134.1C384.393 134.1 386.96 133.867 389.293 133.4C391.693 132.867 393.926 132.033 395.993 130.9ZM431.149 120.8V155.2C432.816 151.733 435.049 149.333 437.849 148C440.716 146.6 443.916 145.9 447.449 145.9C450.316 145.9 452.616 146.267 454.349 147C456.083 147.667 457.449 148.6 458.449 149.8C459.583 151.067 460.383 152.7 460.849 154.7C461.383 156.7 461.649 159.4 461.649 162.8V189.7C461.649 192.5 462.116 194.4 463.049 195.4C464.049 196.4 465.716 196.9 468.049 196.9V199C466.783 198.933 464.849 198.867 462.249 198.8C459.716 198.667 457.249 198.6 454.849 198.6C452.249 198.6 449.716 198.667 447.249 198.8C444.849 198.867 443.049 198.933 441.849 199V196.9C443.849 196.9 445.249 196.4 446.049 195.4C446.849 194.4 447.249 192.5 447.249 189.7V158.6C447.249 156.933 447.083 155.5 446.749 154.3C446.416 153.033 445.783 152.067 444.849 151.4C443.983 150.667 442.716 150.3 441.049 150.3C438.316 150.3 435.983 151.367 434.049 153.5C432.116 155.633 431.149 158.4 431.149 161.8V189.7C431.149 192.5 431.549 194.4 432.349 195.4C433.149 196.4 434.549 196.9 436.549 196.9V199C435.349 198.933 433.583 198.867 431.249 198.8C428.916 198.667 426.549 198.6 424.149 198.6C421.549 198.6 418.916 198.667 416.249 198.8C413.649 198.867 411.683 198.933 410.349 199V196.9C412.683 196.9 414.316 196.4 415.249 195.4C416.249 194.4 416.749 192.5 416.749 189.7V132.8C416.749 129.8 416.283 127.6 415.349 126.2C414.483 124.733 412.816 124 410.349 124V121.9C412.483 122.1 414.549 122.2 416.549 122.2C419.283 122.2 421.883 122.1 424.349 121.9C426.816 121.633 429.083 121.267 431.149 120.8ZM497.489 145.9C503.356 145.9 507.956 147.633 511.289 151.1C514.622 154.567 516.289 160.233 516.289 168.1H483.389L483.189 166.2H503.689C503.756 162.933 503.556 159.933 503.089 157.2C502.622 154.4 501.889 152.167 500.889 150.5C499.889 148.833 498.556 148 496.889 148C494.556 148 492.556 149.467 490.889 152.4C489.289 155.333 488.322 160.2 487.989 167L488.289 167.6C488.222 168.4 488.156 169.233 488.089 170.1C488.089 170.967 488.089 171.867 488.089 172.8C488.089 177.4 488.722 181.133 489.989 184C491.322 186.867 492.989 188.967 494.989 190.3C496.989 191.567 499.022 192.2 501.089 192.2C503.089 192.2 505.256 191.7 507.589 190.7C509.989 189.7 512.222 187.533 514.289 184.2L516.089 184.8C515.289 187.333 514.022 189.8 512.289 192.2C510.556 194.6 508.356 196.567 505.689 198.1C503.022 199.633 499.822 200.4 496.089 200.4C491.556 200.4 487.556 199.433 484.089 197.5C480.622 195.567 477.889 192.633 475.889 188.7C473.956 184.767 472.989 179.767 472.989 173.7C472.989 167.5 474.022 162.333 476.089 158.2C478.222 154.067 481.122 151 484.789 149C488.522 146.933 492.756 145.9 497.489 145.9ZM37.6 265.9C40.4 265.9 42.6667 266.267 44.4 267C46.2 267.667 47.6 268.6 48.6 269.8C49.6667 271.067 50.4333 272.7 50.9 274.7C51.4333 276.7 51.7 279.4 51.7 282.8V309.7C51.7 312.5 52.1667 314.4 53.1 315.4C54.1 316.4 55.7667 316.9 58.1 316.9V319C56.8333 318.933 54.9333 318.867 52.4 318.8C49.8667 318.667 47.3667 318.6 44.9 318.6C42.3667 318.6 39.8667 318.667 37.4 318.8C35 318.867 33.1667 318.933 31.9 319V316.9C33.9 316.9 35.3 316.4 36.1 315.4C36.9 314.4 37.3 312.5 37.3 309.7V278.6C37.3 276.933 37.1333 275.5 36.8 274.3C36.4667 273.033 35.8667 272.067 35 271.4C34.1333 270.667 32.8333 270.3 31.1 270.3C28.3 270.3 25.9333 271.4 24 273.6C22.1333 275.8 21.2 278.567 21.2 281.9V309.7C21.2 312.5 21.6 314.4 22.4 315.4C23.2667 316.4 24.6667 316.9 26.6 316.9V319C25.4 318.933 23.6333 318.867 21.3 318.8C19.0333 318.667 16.6667 318.6 14.2 318.6C11.6667 318.6 9.06667 318.667 6.4 318.8C3.73333 318.867 1.73333 318.933 0.4 319V316.9C2.73333 316.9 4.36667 316.4 5.3 315.4C6.3 314.4 6.8 312.5 6.8 309.7V278.2C6.8 275.2 6.33333 273 5.4 271.6C4.53333 270.133 2.86667 269.4 0.4 269.4V267.3C2.53333 267.5 4.6 267.6 6.6 267.6C9.4 267.6 12 267.5 14.4 267.3C16.8667 267.033 19.1333 266.667 21.2 266.2V275.2C22.8667 271.8 25.1333 269.4 28 268C30.8667 266.6 34.0667 265.9 37.6 265.9ZM87.6258 265.9C93.4924 265.9 98.0924 267.633 101.426 271.1C104.759 274.567 106.426 280.233 106.426 288.1H73.5258L73.3258 286.2H93.8258C93.8925 282.933 93.6925 279.933 93.2258 277.2C92.7591 274.4 92.0258 272.167 91.0258 270.5C90.0258 268.833 88.6925 268 87.0258 268C84.6924 268 82.6924 269.467 81.0258 272.4C79.4258 275.333 78.4591 280.2 78.1258 287L78.4258 287.6C78.3591 288.4 78.2924 289.233 78.2258 290.1C78.2258 290.967 78.2258 291.867 78.2258 292.8C78.2258 297.4 78.8591 301.133 80.1258 304C81.4591 306.867 83.1258 308.967 85.1258 310.3C87.1258 311.567 89.1591 312.2 91.2258 312.2C93.2258 312.2 95.3924 311.7 97.7258 310.7C100.126 309.7 102.359 307.533 104.426 304.2L106.226 304.8C105.426 307.333 104.159 309.8 102.426 312.2C100.692 314.6 98.4924 316.567 95.8258 318.1C93.1591 319.633 89.9591 320.4 86.2258 320.4C81.6924 320.4 77.6924 319.433 74.2258 317.5C70.7591 315.567 68.0258 312.633 66.0258 308.7C64.0924 304.767 63.1258 299.767 63.1258 293.7C63.1258 287.5 64.1591 282.333 66.2258 278.2C68.3591 274.067 71.2591 271 74.9258 269C78.6591 266.933 82.8924 265.9 87.6258 265.9ZM132.952 267.3V269.4C131.618 269.4 130.618 269.7 129.952 270.3C129.352 270.9 129.385 271.733 130.052 272.8L156.352 311.9C157.152 313.1 157.985 314.2 158.852 315.2C159.785 316.133 160.818 316.7 161.952 316.9V319C160.952 318.933 159.418 318.867 157.352 318.8C155.352 318.667 153.318 318.6 151.252 318.6C148.852 318.6 146.385 318.667 143.852 318.8C141.318 318.867 139.452 318.933 138.252 319V316.9C139.585 316.9 140.552 316.6 141.152 316C141.818 315.4 141.818 314.567 141.152 313.5L114.852 274.4C113.718 272.733 112.752 271.533 111.952 270.8C111.218 270 110.318 269.533 109.252 269.4V267.3C110.385 267.367 112.085 267.467 114.352 267.6C116.618 267.667 118.885 267.7 121.152 267.7C123.352 267.7 125.585 267.667 127.852 267.6C130.118 267.467 131.818 267.367 132.952 267.3ZM130.652 294.9C130.652 294.9 130.752 295.3 130.952 296.1C131.152 296.9 131.252 297.3 131.252 297.3L127.252 302.4C125.252 305 124.152 307.4 123.952 309.6C123.752 311.733 124.318 313.467 125.652 314.8C126.985 316.067 128.818 316.8 131.152 317V319C129.885 318.933 128.318 318.9 126.452 318.9C124.652 318.833 122.885 318.8 121.152 318.8C119.418 318.733 117.952 318.7 116.752 318.7C114.018 318.7 111.685 318.8 109.752 319V317C111.285 316.4 112.752 315.533 114.152 314.4C115.552 313.2 117.118 311.5 118.852 309.3L130.652 294.9ZM159.052 267.3V269.3C157.652 269.7 156.185 270.567 154.652 271.9C153.118 273.233 151.518 274.933 149.852 277L138.852 290.8C138.852 290.8 138.752 290.433 138.552 289.7C138.352 288.9 138.252 288.5 138.252 288.5L143.252 281.8C145.985 278.333 147.118 275.467 146.652 273.2C146.185 270.867 144.185 269.567 140.652 269.3V267.3C142.585 267.367 144.552 267.433 146.552 267.5C148.552 267.567 150.352 267.6 151.952 267.6C154.752 267.6 157.118 267.5 159.052 267.3ZM184.665 250.9V267.3H196.465V269.3H184.665V309.7C184.665 311.7 185.032 313.133 185.765 314C186.498 314.8 187.598 315.2 189.065 315.2C190.265 315.2 191.465 314.767 192.665 313.9C193.865 312.967 194.932 311.4 195.865 309.2L197.565 310.1C196.498 313.1 194.865 315.567 192.665 317.5C190.532 319.433 187.598 320.4 183.865 320.4C181.665 320.4 179.732 320.1 178.065 319.5C176.398 318.967 174.998 318.133 173.865 317C172.398 315.533 171.432 313.733 170.965 311.6C170.498 309.4 170.265 306.567 170.265 303.1V269.3H161.865V267.3H170.265V254.1C173.065 254.1 175.632 253.867 177.965 253.4C180.365 252.867 182.598 252.033 184.665 250.9ZM241.405 240.7V309.7C241.405 312.5 241.872 314.4 242.805 315.4C243.805 316.4 245.472 316.9 247.805 316.9V319C246.539 318.933 244.639 318.867 242.105 318.8C239.572 318.667 237.005 318.6 234.405 318.6C231.805 318.6 229.172 318.667 226.505 318.8C223.905 318.867 221.939 318.933 220.605 319V316.9C222.939 316.9 224.572 316.4 225.505 315.4C226.505 314.4 227.005 312.5 227.005 309.7V252.7C227.005 249.7 226.539 247.5 225.605 246.1C224.739 244.633 223.072 243.9 220.605 243.9V241.8C222.739 242 224.805 242.1 226.805 242.1C229.539 242.1 232.139 242 234.605 241.8C237.072 241.533 239.339 241.167 241.405 240.7ZM276.884 265.9C282.75 265.9 287.35 267.633 290.684 271.1C294.017 274.567 295.684 280.233 295.684 288.1H262.784L262.584 286.2H283.084C283.15 282.933 282.95 279.933 282.484 277.2C282.017 274.4 281.284 272.167 280.284 270.5C279.284 268.833 277.95 268 276.284 268C273.95 268 271.95 269.467 270.284 272.4C268.684 275.333 267.717 280.2 267.384 287L267.684 287.6C267.617 288.4 267.55 289.233 267.484 290.1C267.484 290.967 267.484 291.867 267.484 292.8C267.484 297.4 268.117 301.133 269.384 304C270.717 306.867 272.384 308.967 274.384 310.3C276.384 311.567 278.417 312.2 280.484 312.2C282.484 312.2 284.65 311.7 286.984 310.7C289.384 309.7 291.617 307.533 293.684 304.2L295.484 304.8C294.684 307.333 293.417 309.8 291.684 312.2C289.95 314.6 287.75 316.567 285.084 318.1C282.417 319.633 279.217 320.4 275.484 320.4C270.95 320.4 266.95 319.433 263.484 317.5C260.017 315.567 257.284 312.633 255.284 308.7C253.35 304.767 252.384 299.767 252.384 293.7C252.384 287.5 253.417 282.333 255.484 278.2C257.617 274.067 260.517 271 264.184 269C267.917 266.933 272.15 265.9 276.884 265.9ZM348.798 267.3V269.3C347.531 269.633 346.331 270.433 345.198 271.7C344.064 272.9 342.964 274.967 341.898 277.9L327.298 319.2C326.231 319.133 325.131 319.1 323.998 319.1C322.931 319.1 321.864 319.133 320.798 319.2L302.998 275C301.931 272.4 300.864 270.833 299.798 270.3C298.798 269.7 297.931 269.4 297.198 269.4V267.3C299.331 267.433 301.531 267.567 303.798 267.7C306.131 267.767 308.664 267.8 311.398 267.8C313.464 267.8 315.631 267.767 317.898 267.7C320.231 267.567 322.398 267.433 324.398 267.3V269.4C322.998 269.4 321.731 269.467 320.598 269.6C319.531 269.733 318.798 270.167 318.398 270.9C317.998 271.633 318.064 272.933 318.598 274.8L330.298 305.8L329.298 307.2L337.198 285.3C339.064 279.9 339.364 275.967 338.098 273.5C336.831 270.967 334.631 269.567 331.498 269.3V267.3C333.031 267.367 334.664 267.433 336.398 267.5C338.198 267.567 339.764 267.6 341.098 267.6C342.431 267.6 343.831 267.567 345.298 267.5C346.764 267.433 347.931 267.367 348.798 267.3ZM375.614 265.9C381.481 265.9 386.081 267.633 389.414 271.1C392.747 274.567 394.414 280.233 394.414 288.1H361.514L361.314 286.2H381.814C381.881 282.933 381.681 279.933 381.214 277.2C380.747 274.4 380.014 272.167 379.014 270.5C378.014 268.833 376.681 268 375.014 268C372.681 268 370.681 269.467 369.014 272.4C367.414 275.333 366.447 280.2 366.114 287L366.414 287.6C366.347 288.4 366.281 289.233 366.214 290.1C366.214 290.967 366.214 291.867 366.214 292.8C366.214 297.4 366.847 301.133 368.114 304C369.447 306.867 371.114 308.967 373.114 310.3C375.114 311.567 377.147 312.2 379.214 312.2C381.214 312.2 383.381 311.7 385.714 310.7C388.114 309.7 390.347 307.533 392.414 304.2L394.214 304.8C393.414 307.333 392.147 309.8 390.414 312.2C388.681 314.6 386.481 316.567 383.814 318.1C381.147 319.633 377.947 320.4 374.214 320.4C369.681 320.4 365.681 319.433 362.214 317.5C358.747 315.567 356.014 312.633 354.014 308.7C352.081 304.767 351.114 299.767 351.114 293.7C351.114 287.5 352.147 282.333 354.214 278.2C356.347 274.067 359.247 271 362.914 269C366.647 266.933 370.881 265.9 375.614 265.9ZM420.605 240.7V309.7C420.605 312.5 421.071 314.4 422.005 315.4C423.005 316.4 424.671 316.9 427.005 316.9V319C425.738 318.933 423.838 318.867 421.305 318.8C418.771 318.667 416.205 318.6 413.605 318.6C411.005 318.6 408.371 318.667 405.705 318.8C403.105 318.867 401.138 318.933 399.805 319V316.9C402.138 316.9 403.771 316.4 404.705 315.4C405.705 314.4 406.205 312.5 406.205 309.7V252.7C406.205 249.7 405.738 247.5 404.805 246.1C403.938 244.633 402.271 243.9 399.805 243.9V241.8C401.938 242 404.005 242.1 406.005 242.1C408.738 242.1 411.338 242 413.805 241.8C416.271 241.533 418.538 241.167 420.605 240.7Z" fill="#08082A"/>
<path d="M13.4 121.5C16.2 121.5 18.4 122.2 20 123.6C21.6667 124.933 22.5 126.8 22.5 129.2C22.5 131.6 21.6667 133.5 20 134.9C18.4 136.233 16.2 136.9 13.4 136.9C10.6 136.9 8.36667 136.233 6.7 134.9C5.1 133.5 4.3 131.6 4.3 129.2C4.3 126.8 5.1 124.933 6.7 123.6C8.36667 122.2 10.6 121.5 13.4 121.5ZM21.2 146.2V189.7C21.2 192.5 21.6667 194.4 22.6 195.4C23.6 196.4 25.2667 196.9 27.6 196.9V199C26.4 198.933 24.5333 198.867 22 198.8C19.4667 198.667 16.9 198.6 14.3 198.6C11.7 198.6 9.06667 198.667 6.4 198.8C3.73333 198.867 1.73333 198.933 0.4 199V196.9C2.73333 196.9 4.36667 196.4 5.3 195.4C6.3 194.4 6.8 192.5 6.8 189.7V158.2C6.8 155.2 6.33333 153 5.4 151.6C4.53333 150.133 2.86667 149.4 0.4 149.4V147.3C2.53333 147.5 4.6 147.6 6.6 147.6C9.4 147.6 12 147.5 14.4 147.3C16.8667 147.033 19.1333 146.667 21.2 146.2ZM81.143 120.7V188C81.143 191 81.6096 193.233 82.543 194.7C83.4763 196.1 85.143 196.8 87.543 196.8V198.9C85.4763 198.7 83.4096 198.6 81.343 198.6C78.543 198.6 75.9096 198.7 73.443 198.9C71.043 199.1 68.8096 199.467 66.743 200V132.7C66.743 129.7 66.2763 127.5 65.343 126.1C64.4763 124.633 62.8096 123.9 60.343 123.9V121.8C62.4763 122 64.543 122.1 66.543 122.1C69.2763 122.1 71.8763 122 74.343 121.8C76.8096 121.533 79.0763 121.167 81.143 120.7ZM55.643 145.9C58.5763 145.9 61.143 146.4 63.343 147.4C65.6096 148.333 67.3763 149.933 68.643 152.2L67.443 153.3C66.5763 151.7 65.4096 150.567 63.943 149.9C62.543 149.167 61.043 148.8 59.443 148.8C56.043 148.8 53.343 150.8 51.343 154.8C49.343 158.733 48.3763 164.833 48.443 173.1C48.443 178.767 48.8096 183.3 49.543 186.7C50.343 190.033 51.443 192.433 52.843 193.9C54.3096 195.367 55.9763 196.1 57.843 196.1C60.1096 196.1 62.143 195.2 63.943 193.4C65.743 191.6 66.7096 189.167 66.843 186.1L67.343 189.6C66.343 193.133 64.7096 195.833 62.443 197.7C60.243 199.5 57.343 200.4 53.743 200.4C49.8096 200.4 46.2763 199.433 43.143 197.5C40.0763 195.567 37.6763 192.6 35.943 188.6C34.2096 184.533 33.343 179.3 33.343 172.9C33.343 166.833 34.3096 161.833 36.243 157.9C38.1763 153.9 40.8096 150.9 44.143 148.9C47.543 146.9 51.3763 145.9 55.643 145.9ZM117.509 145.9C123.375 145.9 127.975 147.633 131.309 151.1C134.642 154.567 136.309 160.233 136.309 168.1H103.409L103.209 166.2H123.709C123.775 162.933 123.575 159.933 123.109 157.2C122.642 154.4 121.909 152.167 120.909 150.5C119.909 148.833 118.575 148 116.909 148C114.575 148 112.575 149.467 110.909 152.4C109.309 155.333 108.342 160.2 108.009 167L108.309 167.6C108.242 168.4 108.175 169.233 108.109 170.1C108.109 170.967 108.109 171.867 108.109 172.8C108.109 177.4 108.742 181.133 110.009 184C111.342 186.867 113.009 188.967 115.009 190.3C117.009 191.567 119.042 192.2 121.109 192.2C123.109 192.2 125.275 191.7 127.609 190.7C130.009 189.7 132.242 187.533 134.309 184.2L136.109 184.8C135.309 187.333 134.042 189.8 132.309 192.2C130.575 194.6 128.375 196.567 125.709 198.1C123.042 199.633 119.842 200.4 116.109 200.4C111.575 200.4 107.575 199.433 104.109 197.5C100.642 195.567 97.9086 192.633 95.9086 188.7C93.9753 184.767 93.0086 179.767 93.0086 173.7C93.0086 167.5 94.0419 162.333 96.1086 158.2C98.2419 154.067 101.142 151 104.809 149C108.542 146.933 112.775 145.9 117.509 145.9ZM155.299 199.7C150.833 199.7 147.599 198.533 145.599 196.2C143.599 193.867 142.599 191.033 142.599 187.7C142.599 184.833 143.233 182.5 144.499 180.7C145.833 178.9 147.533 177.433 149.599 176.3C151.666 175.1 153.833 174.133 156.099 173.4C158.433 172.6 160.633 171.833 162.699 171.1C164.833 170.3 166.533 169.4 167.799 168.4C169.133 167.4 169.799 166.133 169.799 164.6V156.8C169.799 155.067 169.499 153.533 168.899 152.2C168.366 150.8 167.499 149.733 166.299 149C165.166 148.267 163.666 147.9 161.799 147.9C160.466 147.9 159.133 148.1 157.799 148.5C156.466 148.833 155.366 149.433 154.499 150.3C156.366 150.967 157.799 152 158.799 153.4C159.866 154.733 160.399 156.267 160.399 158C160.399 160.267 159.599 162.067 157.999 163.4C156.466 164.733 154.633 165.4 152.499 165.4C150.099 165.4 148.266 164.667 146.999 163.2C145.799 161.667 145.199 159.833 145.199 157.7C145.199 155.767 145.666 154.167 146.599 152.9C147.599 151.633 148.966 150.433 150.699 149.3C152.566 148.233 154.799 147.4 157.399 146.8C160.066 146.2 162.933 145.9 165.999 145.9C169.066 145.9 171.833 146.233 174.299 146.9C176.766 147.5 178.833 148.633 180.499 150.3C182.033 151.833 183.033 153.733 183.499 156C183.966 158.2 184.199 161 184.199 164.4V191.6C184.199 193.2 184.366 194.333 184.699 195C185.033 195.667 185.599 196 186.399 196C187.066 196 187.699 195.833 188.299 195.5C188.899 195.167 189.466 194.767 189.999 194.3L190.999 196C189.599 197.2 187.966 198.133 186.099 198.8C184.299 199.4 182.266 199.7 179.999 199.7C175.999 199.7 173.333 198.9 171.999 197.3C170.733 195.633 170.066 193.733 169.999 191.6C168.333 194.333 166.266 196.367 163.799 197.7C161.399 199.033 158.566 199.7 155.299 199.7ZM162.999 193.3C164.266 193.3 165.433 193 166.499 192.4C167.633 191.8 168.733 190.733 169.799 189.2V168.7C168.999 170.033 167.866 171.167 166.399 172.1C164.999 172.967 163.533 173.933 161.999 175C160.533 176 159.299 177.3 158.299 178.9C157.299 180.5 156.799 182.633 156.799 185.3C156.799 188.167 157.399 190.233 158.599 191.5C159.799 192.7 161.266 193.3 162.999 193.3ZM213.657 145.9C216.457 145.9 218.89 146.267 220.957 147C223.09 147.667 224.624 148.333 225.557 149C227.824 150.533 229.224 149.533 229.757 146H231.857C231.724 147.867 231.624 150.167 231.557 152.9C231.49 155.567 231.457 159.133 231.457 163.6H229.357C229.024 161.133 228.39 158.7 227.457 156.3C226.524 153.9 225.157 151.933 223.357 150.4C221.624 148.867 219.357 148.1 216.557 148.1C214.624 148.1 212.99 148.667 211.657 149.8C210.324 150.867 209.657 152.433 209.657 154.5C209.657 156.5 210.257 158.267 211.457 159.8C212.657 161.267 214.19 162.7 216.057 164.1C217.99 165.433 219.99 166.867 222.057 168.4C225.39 170.867 228.19 173.367 230.457 175.9C232.79 178.367 233.957 181.6 233.957 185.6C233.957 188.6 233.09 191.233 231.357 193.5C229.624 195.7 227.324 197.4 224.457 198.6C221.657 199.8 218.524 200.4 215.057 200.4C213.057 200.4 211.257 200.2 209.657 199.8C208.124 199.4 206.79 198.9 205.657 198.3C204.79 197.9 203.957 197.533 203.157 197.2C202.424 196.8 201.724 196.467 201.057 196.2C200.39 196 199.79 196.233 199.257 196.9C198.79 197.567 198.424 198.5 198.157 199.7H196.057C196.19 197.567 196.29 194.967 196.357 191.9C196.424 188.833 196.457 184.767 196.457 179.7H198.557C198.957 183.3 199.69 186.5 200.757 189.3C201.824 192.033 203.257 194.2 205.057 195.8C206.924 197.333 209.257 198.1 212.057 198.1C213.79 198.1 215.39 197.567 216.857 196.5C218.324 195.367 219.057 193.533 219.057 191C219.057 188.067 218.09 185.633 216.157 183.7C214.29 181.767 211.89 179.667 208.957 177.4C206.824 175.667 204.79 173.967 202.857 172.3C200.99 170.567 199.457 168.7 198.257 166.7C197.057 164.633 196.457 162.3 196.457 159.7C196.457 156.7 197.257 154.167 198.857 152.1C200.457 150.033 202.557 148.5 205.157 147.5C207.824 146.433 210.657 145.9 213.657 145.9Z" fill="url(#paint0_linear_2_761)"/>
<defs>
<linearGradient id="paint0_linear_2_761" x1="520" y1="337" x2="183.497" y2="-150.929" gradientUnits="userSpaceOnUse">
<stop stop-color="#FF5A09"/>
<stop offset="1" stop-color="#FF894E"/>
</linearGradient>
</defs>
</svg>
